<svg width="200" height="200" viewBox="0 0 200 200" fill="none" xmlns="http://www.w3.org/2000/svg">
<path opacity="0.5" d="M99.9997 133.333C51.9997 133.333 43.4997 85.5 41.9997 47.55C41.5831 37 41.3664 31.7167 45.3331 26.8417C49.2997 21.9583 54.0414 21.1583 63.5331 19.5583C75.5871 17.5828 87.7849 16.6155 99.9997 16.6667C114.858 16.6667 127.108 17.975 136.475 19.5583C145.958 21.1583 150.708 21.9583 154.666 26.8417C158.633 31.725 158.425 37 158 47.55C156.5 85.4917 148 133.333 99.9997 133.333Z" fill="#FF9900"/>
<path d="M147 103.517L170.475 90.475C176.742 86.9917 179.875 85.25 181.608 82.3167C183.333 79.3834 183.333 75.8 183.333 68.625V68.0167C183.333 59.325 183.333 54.975 180.975 51.7C178.616 48.425 174.491 47.05 166.241 44.3L158.333 41.6667L158.191 42.375C158.15 43.95 158.083 45.6667 158.008 47.55C157.275 66.0917 154.867 86.9917 147.008 103.517H147ZM41.9998 47.55C42.7248 66.0917 45.1332 86.9917 52.9998 103.517L29.5248 90.475C23.2582 86.9917 20.1165 85.25 18.3915 82.3167C16.6665 79.3834 16.6665 75.8 16.6665 68.625V68.0167C16.6665 59.325 16.6665 54.975 19.0248 51.7C21.3832 48.425 25.5082 47.05 33.7582 44.3L41.6665 41.6667L41.8082 42.3917C41.8498 43.9584 41.9165 45.675 41.9915 47.5584L41.9998 47.55Z" fill="#FF9900"/>
<path fill-rule="evenodd" clip-rule="evenodd" d="M43.75 183.333C43.75 181.676 44.4085 180.086 45.5806 178.914C46.7527 177.742 48.3424 177.083 50 177.083H150C151.658 177.083 153.247 177.742 154.419 178.914C155.592 180.086 156.25 181.676 156.25 183.333C156.25 184.991 155.592 186.581 154.419 187.753C153.247 188.925 151.658 189.583 150 189.583H50C48.3424 189.583 46.7527 188.925 45.5806 187.753C44.4085 186.581 43.75 184.991 43.75 183.333Z" fill="#FF9900"/>
<path opacity="0.5" d="M128.816 177.083H71.1914L73.6664 162.5C74.0439 160.612 75.0637 158.912 76.5525 157.691C78.0414 156.469 79.9073 155.801 81.8331 155.8H118.166C120.094 155.799 121.961 156.466 123.452 157.688C124.943 158.91 125.964 160.61 126.341 162.5L128.816 177.083Z" fill="black"/>
<path d="M100 133.333C97.8333 133.333 95.75 133.242 93.75 133.05V155.8H106.25V133.05C104.172 133.242 102.087 133.337 100 133.333Z" fill="black"/>
<path fill-rule="evenodd" clip-rule="evenodd" d="M106.558 48.3917C107.7 48.8648 108.677 49.6659 109.363 50.6939C110.05 51.7219 110.417 52.9304 110.417 54.1667V87.5C110.417 89.1576 109.758 90.7473 108.586 91.9194C107.414 93.0915 105.824 93.75 104.167 93.75C102.509 93.75 100.919 93.0915 99.7472 91.9194C98.5751 90.7473 97.9166 89.1576 97.9166 87.5V69.25L96.0833 71.0833C95.5111 71.6974 94.8211 72.1899 94.0545 72.5315C93.2878 72.8731 92.4602 73.0568 91.621 73.0716C90.7818 73.0864 89.9482 72.932 89.17 72.6177C88.3918 72.3034 87.6848 71.8355 87.0913 71.242C86.4978 70.6485 86.03 69.9416 85.7156 69.1633C85.4013 68.3851 85.2469 67.5515 85.2617 66.7123C85.2765 65.8731 85.4602 65.0455 85.8018 64.2789C86.1434 63.5122 86.6359 62.8222 87.25 62.25L99.75 49.75C100.623 48.8759 101.736 48.2804 102.948 48.0386C104.16 47.7968 105.416 47.9197 106.558 48.3917Z" fill="black"/>
</svg>
