<svg width="200" height="200" viewBox="0 0 200 200" fill="none" xmlns="http://www.w3.org/2000/svg">
<path d="M175.938 104.375L172.188 47.8125L146.25 63.75C133.437 61.5625 130 61.5625 120 56.5625C114.062 53.75 106.562 55.625 102.812 57.8125C97.1875 51.875 60.625 60.625 56.5625 62.5C45.625 59.375 29.375 46.5625 29.375 46.5625L24.0625 110.625L31.25 112.5C31.875 114.688 33.75 120 33.75 120C26.875 128.75 35 139.063 42.8125 135.625C39.375 144.375 48.4375 152.5 55.625 146.875C54.6875 155 63.125 160.938 69.375 155.313C66.5625 165 77.5 172.187 84.0625 164.375C88.75 167.5 93.125 170 96.875 171.25C103.438 174.063 110.625 167.813 109.375 160C116.875 168.75 128.125 160.313 125.625 150.625C134.062 157.188 144.375 146.25 139.062 136.562C148.438 141.875 156.562 127.5 147.5 118.125L175.938 104.375Z" fill="#FFE1BD"/>
<path d="M43.4375 113.437C48.125 115.625 51.25 122.812 46.25 129.062L44.0625 131.562C41.5625 134.687 39.0625 135.625 36.5625 135.625C38.4375 136.563 40.625 136.563 42.8125 135.625C43.125 134.688 43.75 133.438 44.6875 132.5L46.875 130C48.125 128.437 49.6875 127.187 50.9375 126.562C53.4375 120 49.0625 113.75 43.4375 113.437ZM79.375 144.375C84.375 145.625 88.125 152.187 84.375 159.375L82.5 162.188C80.625 165.625 78.125 167.187 75.625 167.5C79.0625 168.437 82.8125 167.187 85.3125 162.5L87.1875 159.687C91.5625 150.937 85.625 143.75 79.375 144.375ZM57.1875 141.875L62.1875 134.063C61.875 129.688 58.125 125.938 54.375 125.625C59.0625 127.812 62.1875 135 57.1875 141.25L55 143.75C52.5 146.875 50 147.812 47.1875 147.812C49.6875 149.062 52.5 148.75 55.3125 146.875C55.625 145.312 56.25 143.438 57.1875 141.875ZM70.625 127.813C75.625 129.375 79.0625 136.25 74.6875 143.125L68.75 152.5C66.5625 155.937 64.0625 157.187 61.5625 157.187C64.6875 158.125 68.75 157.188 71.5625 152.813L77.5 143.438C82.5 135.313 76.875 127.5 70.625 127.813ZM112.188 135.625C112.5 135.625 116.25 135 117.5 135C112.812 130.312 105.312 134.062 100.937 131.562C104.062 136.875 110.625 135.625 111.25 135.625L118.75 145.312C125 153.125 120 162.188 113.437 163.125C120.312 165.312 127.188 158.125 125 150.312C124.688 150 112.188 135.625 112.188 135.625ZM119.687 117.5C119.687 117.5 124.375 116.562 128.437 116.562C123.75 112.812 116.562 116.25 111.875 113.125C113.75 117.188 117.812 117.187 119.062 117.187L133.438 133.75C140 141.25 135.312 150.312 128.75 151.875C136.25 154.062 143.438 144.375 138.75 135.937C135.625 135 119.687 117.5 119.687 117.5Z" fill="#E6B796"/>
<path d="M109.687 153.438C105 149.688 98.4375 152.5 95.625 150.625C97.1875 155 103.125 154.062 103.437 154.062C108.75 162.188 103.125 170.625 96.5625 171.25C103.125 174.062 110.313 167.813 109.063 160C108.75 159.688 104.375 154.062 104.375 154.062C105 153.75 108.437 153.438 109.687 153.438ZM172.5 99.0625C172.5 99.0625 167.188 110 146.563 115.938C143.75 112.5 137.813 105.625 130.938 99.6875C135.313 98.75 137.5 95.3125 140.937 94.6875C139.687 93.4375 135.312 94.0625 131.875 95.3125C125.625 97.5 111.25 87.5 111.25 87.5L99.375 89.0625C90.9375 97.1875 72.8125 101.562 71.875 89.0625C71.25 80.3125 90.3125 74.375 96.25 68.75C103.75 61.5625 110.313 52.5 122.5 58.75C132.5 63.75 136.562 63.4375 150.312 65.9375C155 66.875 158.125 69.0625 161.562 73.75C158.75 67.1875 154.688 64.375 149.688 63.4375L171.563 53.125L171.875 47.8125L145.938 62.5C134.062 60.625 129.688 60.625 120 55.9375C113.75 52.8125 108.75 53.75 104.688 56.25C97.1875 51.875 92.8125 52.8125 90 53.4375C81.25 56.25 67.1875 56.5625 54.6875 61.5625C56.875 62.1875 59.0625 62.8125 60.625 62.8125C72.8125 59.0625 85.625 59.375 91.5625 57.1875C93.4375 56.5625 97.1875 56.5625 101.25 58.75C98.75 60.9375 96.5625 63.4375 94.0625 65.9375C88.125 71.5625 70 79.6875 71.25 90C71.875 95 78.75 108.125 101.562 93.4375L111.25 92.1875C111.25 92.1875 129.062 100.625 145.625 120C152.187 127.5 148.125 135.625 141.562 137.5C150 139.062 157.188 127.188 149.062 119.062L168.75 108.438L172.5 99.0625Z" fill="#E6B796"/>
<path d="M166.875 50.9375L177.188 104.375L168.75 108.125C164.375 96.5625 157.813 68.75 159.375 55.3125L166.875 50.9375Z" fill="#3B946F"/>
<path d="M34.6875 118.75C33.125 115 32.1875 110 32.1875 110L24.375 104.688L23.75 110.625L30.625 112.5C31.5625 115.625 32.5 118.125 33.75 120L34.6875 118.75Z" fill="#E6B796"/>
<path d="M19.0625 109.687L35.9375 51.25L43.75 56.5625C45 65.3125 30.625 105.312 25.3125 111.25L19.0625 109.687Z" fill="#3B946F"/>
<path d="M166.562 50.625C164.062 52.1875 173.125 106.25 176.875 104.688C188.75 99.375 194.062 97.8125 194.062 97.8125V33.4375C193.75 33.4375 186.562 38.75 166.562 50.625ZM6.25 28.125V107.812C6.25 107.812 11.875 108.75 19.0625 110.312C23.125 111.25 37.8125 52.5 36.875 51.5625C26.25 44.375 6.25 28.125 6.25 28.125Z" fill="#47B892"/>
</svg>
