<svg width="106" height="106" viewBox="0 0 106 106" fill="none" xmlns="http://www.w3.org/2000/svg">
<path d="M95.5763 26.4756L52.7295 6.23713C52.3161 6.04417 51.8644 5.94674 51.4082 5.95205C50.9519 5.95736 50.5027 6.06529 50.0938 6.26782C49.685 6.47035 49.3269 6.76231 49.0462 7.12204C48.7655 7.48178 48.5694 7.90007 48.4723 8.34592C48.4624 8.37897 45.0348 24.3106 39.9446 40.1926C38.2093 45.6365 36.2658 51.0175 34.2363 55.7441L39.7397 58.3421C46.3503 42.9988 51.5859 21.8184 53.5559 13.3469L90.7968 30.9146C89.6532 35.9155 86.7214 48.1782 82.798 60.4211C80.2628 68.3539 77.2946 76.2767 74.2537 82.0114C71.312 87.9279 67.7819 90.8366 66.992 90.4466C62.2984 90.5457 58.9997 86.2753 56.7785 80.8017C55.8443 78.3936 55.1178 75.9099 54.607 73.3779C54.1839 71.3353 54.055 70.0528 54.0451 70.0528C53.9924 69.5361 53.8063 69.042 53.5049 68.6189C53.2036 68.1959 52.7974 67.8585 52.3263 67.6399L9.48944 47.4114C9.00139 47.1811 8.46105 47.0843 7.92341 47.1308C7.38578 47.1772 6.87005 47.3653 6.42872 47.6758C5.98996 47.9892 5.64241 48.4136 5.4217 48.9056C5.20099 49.3975 5.11506 49.9393 5.1727 50.4754C5.19915 50.6275 5.81724 56.5903 8.30283 62.8274C10.0282 67.1904 12.9534 72.1417 17.7098 74.6439L60.5334 94.9054L60.5532 94.8658C62.4108 95.8408 64.5196 96.4755 66.9887 96.5052C72.9283 96.1185 76.1675 90.992 79.6083 84.854C89.5243 66.0468 97.1926 29.9858 97.2521 29.8536C97.3988 29.186 97.3138 28.4883 97.011 27.8754C96.7082 27.2626 96.2057 26.7712 95.5862 26.4822L95.5763 26.4756Z" fill="#32CBFB"/>
</svg>
