<svg width="106" height="106" viewBox="0 0 106 106" fill="none" xmlns="http://www.w3.org/2000/svg">
<path d="M7.49448 75.0959C7.05653 74.063 6.6351 73.0301 6.22194 71.9971C3.10671 64.1388 7.01521 57.049 10.5023 50.1079L15.5594 40.0598C16.5758 38.0353 18.1375 36.3331 20.0546 35.1432L34.5978 26.1197L48.9676 11.2625C49.8596 10.3368 50.9979 9.68595 52.2481 9.38672L62.0317 7.02344C66.7666 5.89138 68.7993 6.07317 70.328 8.2464C75.6247 15.7659 79.1697 21.9551 83.888 29.4498C86.4578 33.5319 92.3908 42.9106 92.7627 43.5304C93.903 45.4474 93.4402 47.0505 93.3989 49.2485C93.2998 54.3139 94.1922 59.404 96.0432 64.1223C96.5968 65.5271 97.2331 66.9153 97.5223 68.3944C97.7867 69.7248 97.4314 78.178 97.1587 81.0371C96.9356 83.3591 91.4488 92.0272 89.4822 93.0766C87.3172 94.2335 71.27 100.133 67.7251 101.142C64.1802 102.15 48.8106 98.6378 40.8283 97.4148C35.8952 96.6629 30.9538 95.9027 26.0206 95.1507C21.7403 94.4979 17.4847 94.9937 15.0884 90.672C12.2706 85.6149 9.74207 80.4174 7.49448 75.0959Z" fill="url(#paint0_linear_20_19)"/>
<path d="M26.0125 95.1424C30.9457 95.8944 35.8871 96.6546 40.8202 97.4066C43.3901 97.8032 46.7284 98.4312 50.1907 99.0757C47.8605 96.3158 44.3817 93.0436 42.0514 90.2837C41.5474 89.6887 41.0351 89.069 40.8533 88.3088C40.6632 87.499 40.8781 86.6644 41.1012 85.8628C41.8118 83.2351 41.9936 80.3843 42.7042 77.7566C38.2999 78.7813 28.1527 80.7314 27.3181 80.4917C26.3926 80.2273 25.6407 79.558 24.9218 78.9052C19.6912 74.1291 15.6009 69.3116 11.6015 63.486C11.1305 62.8002 10.6512 62.0895 10.4777 61.2715C10.3124 60.503 10.4364 59.7097 10.5603 58.9413C10.8578 57.0242 11.5188 51.7109 12.0477 47.0257L10.4942 50.1079C7.01538 57.049 3.10688 64.1388 6.23037 71.9971C6.64353 73.0383 7.06496 74.0712 7.50291 75.0959C9.74444 80.4161 12.274 85.6103 15.0803 90.6555C17.4684 94.9854 21.7322 94.4896 26.0125 95.1424Z" fill="url(#paint1_linear_20_19)"/>
<path d="M70.3942 8.33731C69.3779 7.13914 67.3947 7.37051 65.3124 9.27105L57.8259 16.7575C57.3631 17.2203 57.1152 17.8565 57.1566 18.5093L57.9581 33.7963C57.9829 34.3086 58.1729 34.7879 58.5035 35.1762C61.1642 38.2832 70.5678 53.2149 73.2946 53.2149C76.0132 53.2149 80.7646 42.6214 83.1857 42.6792C83.5989 42.6875 85.7556 42.8197 87.8627 43.4643C89.8293 44.0592 90.5978 41.3571 90.1929 39.4401C88.1602 36.2174 85.425 31.8957 83.8881 29.4498C79.1863 21.9881 75.6496 15.8155 70.3942 8.33731Z" fill="url(#paint2_linear_20_19)"/>
<path d="M35.5564 38.432C38.3081 38.0188 47.4885 36.457 49.2155 35.7795C52.5869 34.4491 55.5617 28.7805 57.5283 25.7314C57.5283 25.7314 58.2059 35.672 57.5283 39.5558C57.0573 42.2578 55.2807 56.3879 53.4959 59.7759L42.7041 77.7566L26.847 61.8995C25.5001 60.5526 24.6407 59.842 24.1532 57.9332C23.0376 53.5702 21.0132 47.1331 21.0049 43.3403C20.9966 39.5475 31.2182 39.0765 35.5564 38.432Z" fill="url(#paint3_linear_20_19)"/>
<path d="M55.6113 17.2533C54.5536 15.989 54.2561 14.1959 54.6197 12.5929C54.9254 11.2542 57.7019 8.66782 58.6026 7.84976L52.2481 9.38672C50.9993 9.68933 49.8619 10.3397 48.9676 11.2625L34.5979 26.1197C34.5979 26.1197 48.5132 20.319 55.6113 17.2533Z" fill="url(#paint4_linear_20_19)"/>
<path d="M96.035 64.1223C94.6477 60.5801 93.7955 56.8511 93.5065 53.0579C88.7634 56.3053 86.1109 60.5195 78.4757 61.5525C76.4512 61.8251 73.3194 62.2052 71.3445 62.7258C68.8986 63.3704 66.6345 65.18 62.9656 65.5188C60.3545 65.7667 53.7687 65.5766 54.7602 67.0475C55.7518 68.5183 61.66 71.4848 63.1309 72.683C65.2215 74.3604 67.0394 76.3354 68.7829 78.3681C69.6919 79.4341 71.0553 82.0205 72.6419 82.7228C73.0468 82.9046 73.4764 82.9542 73.9061 82.822C74.6581 82.5989 75.2613 82.0535 75.848 81.5329C81.5365 76.4933 87.9309 72.312 94.8286 69.1216C95.564 68.7828 96.3573 68.4027 96.7209 67.6755C96.8779 67.3532 96.944 66.9153 96.9523 66.4443C96.663 65.6675 96.3408 64.8991 96.035 64.1223Z" fill="url(#paint5_linear_20_19)"/>
<path d="M97.5142 68.3944C97.4068 67.8573 97.2498 67.3284 97.068 66.8079C96.9275 67.2954 96.6218 67.8325 95.9607 68.3366C94.0602 69.7909 86.7307 72.0302 78.6658 79.0953C73.4021 83.7062 73.3939 84.3259 72.2618 89.4078C70.4108 97.7288 67.4691 100.753 66.9072 101.265C67.213 101.232 67.4857 101.191 67.7088 101.125C71.2619 100.125 87.3009 94.217 89.4658 93.0601C91.4325 92.0107 96.9192 83.3426 97.1423 81.0206C97.4233 78.1781 97.7786 69.7248 97.5142 68.3944Z" fill="url(#paint6_linear_20_19)"/>
<defs>
<linearGradient id="paint0_linear_20_19" x1="72.5145" y1="17.5012" x2="34.4474" y2="114.217" gradientUnits="userSpaceOnUse">
<stop stop-color="#9E958E"/>
<stop offset="0.46" stop-color="#8E8884"/>
<stop offset="1" stop-color="#757575"/>
</linearGradient>
<linearGradient id="paint1_linear_20_19" x1="7.43598" y1="99.3872" x2="39.094" y2="64.1851" gradientUnits="userSpaceOnUse">
<stop stop-color="#37474F"/>
<stop offset="0.612" stop-color="#42565F" stop-opacity="0.192"/>
<stop offset="0.757" stop-color="#455A64" stop-opacity="0"/>
</linearGradient>
<linearGradient id="paint2_linear_20_19" x1="82.3784" y1="55.2327" x2="61.9063" y2="9.82055" gradientUnits="userSpaceOnUse">
<stop stop-color="#9E958E"/>
<stop offset="0.442" stop-color="#AEA298"/>
<stop offset="1" stop-color="#C9B8A9"/>
</linearGradient>
<linearGradient id="paint3_linear_20_19" x1="31.1042" y1="86.5032" x2="39.3674" y2="41.6753" gradientUnits="userSpaceOnUse">
<stop stop-color="#4C5C64"/>
<stop offset="1" stop-color="#455A64" stop-opacity="0"/>
</linearGradient>
<linearGradient id="paint4_linear_20_19" x1="34.5996" y1="16.9856" x2="58.6042" y2="16.9856" gradientUnits="userSpaceOnUse">
<stop stop-color="#4C5C64"/>
<stop offset="1" stop-color="#455A64" stop-opacity="0"/>
</linearGradient>
<linearGradient id="paint5_linear_20_19" x1="72.2213" y1="63.4175" x2="100.61" y2="75.1182" gradientUnits="userSpaceOnUse">
<stop stop-color="#9E958E"/>
<stop offset="0.25" stop-color="#AEA298"/>
<stop offset="0.566" stop-color="#C9B8A9"/>
</linearGradient>
<linearGradient id="paint6_linear_20_19" x1="86.5869" y1="102.048" x2="80.7696" y2="79.1011" gradientUnits="userSpaceOnUse">
<stop stop-color="#37474F"/>
<stop offset="0.808" stop-color="#42565F" stop-opacity="0.192"/>
<stop offset="1" stop-color="#455A64" stop-opacity="0"/>
</linearGradient>
</defs>
</svg>
