<svg width="106" height="106" viewBox="0 0 106 106" fill="none" xmlns="http://www.w3.org/2000/svg">
<g clip-path="url(#clip0_20_32)">
<path d="M51.6703 69.2876L28.1695 101.638C23.6164 98.3248 22.6001 91.9538 25.9136 87.3925L46.8858 58.5288M59.4791 41.1925C64.0321 44.506 65.0485 50.877 61.7349 55.4384L58.5949 59.7601L53.8022 49.0013L70.2379 26.4425" fill="#C2C2C2"/>
<path d="M51.6703 69.2876L28.1695 101.638C23.6164 98.3248 22.6001 91.9538 25.9136 87.3925L46.8858 58.5288M59.4791 41.1925C64.0321 44.506 65.0485 50.877 61.7349 55.4384L58.5949 59.7601L53.8022 49.0013L70.2379 26.4425" stroke="#C2C2C2" stroke-width="5" stroke-miterlimit="10"/>
<mask id="mask0_20_32" style="mask-type:luminance" maskUnits="userSpaceOnUse" x="52" y="38" width="14" height="24">
<path d="M59.4956 38.0111C65.3295 42.2502 67.8663 50.3565 63.6272 56.1903L59.6113 61.7185L52.2322 48.0097L59.4956 38.0111Z" fill="white"/>
</mask>
<g mask="url(#mask0_20_32)">
<path d="M62.8504 59.3386L51.6702 44.159" stroke="#999999" stroke-width="4" stroke-miterlimit="10"/>
</g>
<path d="M33.8794 29.7478L44.6217 43.7954L33.8794 29.7478ZM45.4645 41.1925C40.9114 44.506 39.8951 50.877 43.2086 55.4383L76.7741 101.638C81.3272 98.3248 82.3435 91.9538 79.03 87.3925L35.499 28.2026" fill="#C2C2C2"/>
<path d="M33.8794 29.7478L44.6217 43.7954M45.4645 41.1925C40.9114 44.506 39.8951 50.877 43.2086 55.4383L76.7741 101.638C81.3272 98.3248 82.3435 91.9538 79.03 87.3925L35.499 28.2026" stroke="#C2C2C2" stroke-width="5" stroke-miterlimit="10"/>
<path d="M52.2734 61.1483C53.5239 61.1483 54.5376 60.1346 54.5376 58.8841C54.5376 57.6337 53.5239 56.62 52.2734 56.62C51.023 56.62 50.0093 57.6337 50.0093 58.8841C50.0093 60.1346 51.023 61.1483 52.2734 61.1483Z" fill="#2F2F2F"/>
<path d="M68.5853 31.4005L57.843 45.448L68.5853 31.4005Z" fill="#C2C2C2"/>
<path d="M68.5853 31.4005L57.843 45.448" stroke="#C2C2C2" stroke-width="5" stroke-miterlimit="10"/>
<path d="M72.7168 33.0531L67.4448 38.9779C67.282 39.1602 67.0807 39.3041 66.8555 39.3993C66.6304 39.4945 66.3869 39.5385 66.1427 39.5282C65.8985 39.5179 65.6596 39.4536 65.4432 39.3399C65.2268 39.2261 65.0384 39.0658 64.8914 38.8705L61.7183 34.6479L66.1061 27.2688L72.7168 33.0531ZM31.7144 33.0531L36.9533 38.9448C37.1178 39.1303 37.322 39.2763 37.5506 39.3722C37.7793 39.468 38.0265 39.5112 38.2741 39.4985C38.5217 39.4858 38.7633 39.4176 38.9809 39.2988C39.1986 39.1801 39.3867 39.0139 39.5314 38.8126L42.6632 34.4496L38.325 27.2688L31.7144 33.0531Z" fill="#DD5322"/>
<path d="M26.8887 35.7387C20.9226 35.7387 15.1135 32.6482 11.9239 27.1201C7.16424 18.8816 9.99854 8.30459 18.2288 3.5532C26.4673 -1.20645 37.036 1.62786 41.7874 9.86635C46.5388 18.1048 43.7127 28.6736 35.4742 33.425C32.7721 34.995 29.8056 35.7387 26.8887 35.7387ZM26.8391 8.67643C25.1782 8.67643 23.4925 9.09786 21.9472 9.9903C17.262 12.6924 15.6506 18.7081 18.3527 23.3933C21.0548 28.0786 27.0705 29.69 31.7558 26.9879C36.441 24.2858 38.0524 18.2701 35.3503 13.5848C33.5406 10.4365 30.2353 8.67643 26.8391 8.67643ZM78.8812 35.7387C75.956 35.7387 72.9978 34.995 70.2874 33.4332C62.0489 28.6818 59.2146 18.1048 63.9743 9.87461C68.7257 1.63612 79.3027 -1.19819 87.5329 3.56146C95.7714 8.31285 98.6057 18.8898 93.8461 27.1201C90.6647 32.6399 84.8473 35.7387 78.8812 35.7387ZM78.9308 8.67643C75.5346 8.67643 72.2293 10.4365 70.4197 13.5766C67.7176 18.2618 69.3289 24.2775 74.0142 26.9796C78.6995 29.6817 84.7151 28.0704 87.4172 23.3851C90.1193 18.6998 88.508 12.6841 83.8227 9.98203C82.3325 9.13082 80.647 8.68095 78.9308 8.67643Z" fill="#DD5322"/>
</g>
<defs>
<clipPath id="clip0_20_32">
<rect width="105.77" height="105.77" fill="white"/>
</clipPath>
</defs>
</svg>
